FILE "test-out.cue" BINARY
  TRACK 01 MODE2/2352
    INDEX 01 00:00:00
  TRACK 02 AUDIO
    INDEX 00 17:15:60
    INDEX 01 17:17:60
  TRACK 03 AUDIO
    INDEX 00 17:27:10
    INDEX 01 17:29:10
